<?xml version="1.0" standalone="no"?>
<!DOCTYPE svg PUBLIC "-//W3C//DTD SVG 20010904//EN"
 "http://www.w3.org/TR/2001/REC-SVG-20010904/DTD/svg10.dtd">
<svg version="1.0" xmlns="http://www.w3.org/2000/svg"
 width="641.000000pt" height="641.000000pt" viewBox="0 0 641.000000 641.000000"
 preserveAspectRatio="xMidYMid meet">
<metadata>
Created by potrace 1.11, written by Peter Selinger 2001-2013
</metadata>
<g transform="translate(0.000000,641.000000) scale(0.100000,-0.100000)"
fill="#000000" stroke="none">
<path d="M2024 6089 c-23 -26 -23 -92 0 -118 40 -44 125 -32 152 21 18 35 12
70 -16 98 -29 29 -110 28 -136 -1z"/>
<path d="M2204 5726 c-17 -8 -45 -35 -62 -61 -114 -172 100 -361 258 -229 38
33 64 102 57 155 -7 53 -47 112 -90 132 -42 20 -120 21 -163 3z"/>
<path d="M2657 5240 c-88 -23 -163 -83 -208 -170 -20 -38 -24 -60 -24 -135 0
-79 4 -97 28 -142 34 -66 82 -114 143 -144 70 -34 188 -34 258 0 61 30 109 78
143 144 24 45 28 63 28 142 0 78 -4 97 -27 140 -67 127 -212 197 -341 165z"/>
<path d="M1487 4831 c-69 -82 -128 -147 -133 -143 -4 4 -5 2 -1 -3 3 -6 -7
-24 -21 -41 -15 -16 -22 -23 -17 -14 9 13 8 13 -7 1 -10 -7 -16 -16 -14 -20 3
-4 -5 -18 -16 -31 -11 -14 -16 -19 -12 -11 5 9 3 12 -5 7 -6 -4 -9 -10 -7 -14
2 -4 -12 -25 -31 -47 -20 -22 -30 -31 -22 -20 13 18 13 19 -3 6 -10 -7 -16
-16 -14 -20 2 -3 -7 -20 -21 -36 -14 -17 -22 -24 -18 -16 6 9 4 12 -4 7 -6 -4
-9 -11 -6 -16 3 -5 -7 -22 -22 -37 -23 -24 -24 -24 -8 -3 l20 25 -27 -24 c-15
-13 -25 -27 -23 -31 3 -5 -3 -16 -13 -27 -9 -10 -12 -12 -7 -3 9 13 8 13 -7 1
-10 -7 -15 -17 -12 -22 2 -5 -10 -23 -28 -42 -30 -30 -31 -30 -8 -2 l25 30
-32 -29 c-18 -16 -30 -33 -27 -38 8 -12 -36 -59 -47 -52 -5 3 -6 -1 -3 -9 3
-8 -3 -20 -13 -28 -17 -13 -17 -13 -3 6 14 18 14 19 -2 7 -9 -8 -15 -19 -12
-26 2 -6 -10 -25 -28 -41 l-33 -30 30 35 30 35 -32 -29 c-17 -15 -29 -34 -27
-40 3 -7 -8 -23 -23 -36 l-28 -25 25 30 25 30 -27 -24 c-15 -13 -25 -27 -23
-31 2 -4 -3 -16 -11 -26 -9 -10 -12 -13 -8 -5 5 9 3 12 -5 7 -6 -4 -9 -11 -7
-15 3 -4 -7 -21 -22 -37 -15 -17 -20 -21 -12 -10 15 21 15 21 -7 2 -13 -10
-21 -22 -19 -25 3 -4 -5 -18 -16 -31 -11 -14 -16 -19 -12 -11 5 9 3 12 -5 7
-6 -4 -9 -11 -7 -15 3 -4 -7 -21 -22 -37 -15 -17 -20 -21 -12 -10 15 21 15 21
-7 3 -12 -11 -20 -24 -17 -31 2 -6 -10 -25 -28 -41 l-33 -30 30 35 30 35 -32
-29 c-18 -16 -30 -33 -27 -37 5 -8 -122 -169 -134 -169 -3 0 5 12 19 28 l24
27 -27 -24 c-15 -13 -24 -29 -22 -35 3 -7 -6 -21 -18 -32 l-23 -19 20 25 20
25 -22 -19 c-13 -10 -21 -22 -19 -25 3 -4 -5 -18 -16 -31 -11 -14 -16 -19 -12
-11 5 9 3 12 -5 7 -6 -4 -9 -11 -7 -14 2 -4 -5 -19 -16 -32 -11 -14 -16 -19
-12 -11 5 10 3 12 -5 7 -7 -5 -10 -10 -7 -13 5 -6 -86 -123 -156 -200 -21 -24
-38 -47 -38 -53 0 -6 37 -10 95 -10 l95 0 -2 -765 -3 -764 483 -1 c407 0 482
2 482 14 0 7 18 49 39 92 41 82 87 127 176 172 53 26 176 68 244 81 53 11 193
15 241 6 14 -2 39 -6 55 -9 56 -8 128 -23 133 -26 1 -2 7 -4 12 -5 6 -1 12 -4
15 -5 3 -1 10 -4 15 -5 6 -1 12 -4 15 -5 3 -1 10 -4 15 -5 6 -1 13 -4 18 -5 4
-1 10 -2 15 -1 4 0 7 -4 7 -10 0 -5 4 -7 10 -4 6 3 10 1 10 -5 0 -6 5 -8 10
-5 6 3 10 1 10 -5 0 -6 4 -8 10 -5 5 3 10 1 10 -5 0 -6 6 -10 14 -8 8 2 22 -6
31 -17 9 -11 13 -13 9 -5 -4 8 10 -3 32 -26 21 -22 28 -26 14 -10 l-25 31 28
-25 c35 -31 60 -77 53 -96 -4 -10 -2 -12 6 -8 8 5 9 0 5 -15 -3 -13 -3 -20 1
-16 4 3 12 -9 18 -27 l11 -33 1021 -3 1022 -2 0 236 0 235 -44 20 c-133 58
-200 261 -151 454 24 93 60 129 154 155 l41 11 0 189 0 190 110 0 c61 0 110 3
110 7 0 4 -49 56 -109 117 -59 61 -254 264 -431 451 -178 187 -416 437 -529
555 -113 118 -237 248 -275 287 l-69 73 -133 0 -132 0 -21 -33 c-11 -18 -31
-42 -43 -53 -23 -19 -23 -19 -8 1 12 17 11 17 -6 -1 -12 -13 -25 -20 -28 -17
-3 4 -6 1 -6 -6 0 -7 -4 -9 -10 -6 -5 3 -10 1 -10 -4 0 -6 -3 -10 -7 -10 -5 1
-10 0 -13 -1 -19 -7 -68 -12 -150 -13 -123 -2 -201 25 -270 96 l-47 47 -188 0
-188 0 -66 63 c-251 238 -374 352 -381 355 -4 2 -64 -65 -133 -147z m313 -690
c-1 -23 -65 -132 -74 -124 -4 4 -4 -1 0 -11 6 -15 4 -17 -6 -11 -8 5 -11 4 -6
-3 9 -14 -14 -63 -27 -55 -6 3 -7 1 -3 -5 8 -13 -24 -83 -36 -76 -4 3 -5 -3
-1 -12 5 -13 3 -15 -7 -9 -8 5 -11 4 -7 -3 10 -15 -3 -43 -16 -35 -6 3 -7 1
-3 -5 10 -16 -83 -194 -97 -185 -5 3 -7 1 -4 -5 9 -14 -3 -43 -14 -36 -5 3 -6
-2 -3 -10 5 -14 -21 -76 -32 -76 -3 0 -2 5 2 12 4 7 3 8 -5 4 -6 -4 -9 -11 -6
-16 7 -12 -26 -80 -37 -74 -4 3 -5 -3 -1 -12 5 -13 3 -15 -7 -9 -8 5 -11 4 -7
-3 10 -15 -3 -43 -16 -35 -6 3 -7 1 -3 -5 4 -7 -25 -74 -65 -150 -70 -133 -73
-138 -101 -134 l-28 4 119 232 c65 127 192 375 281 551 90 176 167 322 172
323 4 2 5 9 1 15 -3 7 3 3 15 -7 12 -11 22 -26 22 -35z m-181 -131 c-48 -94
-85 -157 -92 -153 -5 3 -7 1 -4 -5 9 -14 -3 -43 -14 -36 -5 3 -6 -3 -2 -12 4
-12 3 -15 -5 -10 -8 4 -10 2 -6 -7 7 -18 -30 -80 -41 -69 -5 4 -5 2 -1 -5 6
-11 -138 -313 -150 -313 -3 0 -2 5 2 12 4 7 3 8 -5 4 -6 -4 -9 -11 -6 -16 8
-13 -17 -60 -28 -53 -6 4 -7 1 -2 -6 9 -16 -15 -62 -28 -54 -6 3 -7 1 -3 -5 8
-13 -34 -103 -46 -96 -4 3 -5 -3 -1 -12 5 -13 3 -15 -7 -9 -8 5 -11 4 -7 -3
10 -15 -3 -43 -16 -35 -6 3 -7 1 -3 -5 4 -6 0 -24 -8 -40 -12 -24 -20 -28 -44
-24 l-30 4 57 111 c32 62 138 270 236 462 98 193 188 364 199 381 20 29 128
154 134 154 1 0 -34 -72 -79 -160z m250 27 c-7 -15 -16 -24 -22 -20 -6 3 -7 1
-3 -5 4 -7 -19 -61 -50 -122 -54 -105 -70 -131 -58 -92 5 13 4 14 -4 3 -6 -8
-8 -21 -4 -29 3 -10 1 -13 -6 -8 -8 5 -10 2 -6 -8 7 -19 -26 -77 -39 -69 -6 3
-7 1 -3 -5 10 -16 -143 -314 -156 -306 -6 4 -8 2 -4 -4 6 -11 -38 -122 -49
-122 -3 0 -3 5 1 12 4 7 3 8 -5 4 -6 -4 -9 -11 -6 -16 7 -12 -16 -60 -26 -54
-5 3 -6 -3 -2 -12 5 -13 3 -15 -7 -9 -9 6 -11 4 -5 -4 9 -16 -15 -62 -28 -54
-6 3 -7 1 -3 -6 4 -6 1 -22 -8 -35 -11 -18 -21 -22 -41 -19 -25 5 -23 10 176
402 111 218 223 437 249 486 26 50 55 105 65 124 17 33 17 33 36 14 17 -17 18
-23 8 -46z m48 -137 c-23 -43 -46 -76 -51 -72 -5 3 -6 -1 -1 -7 9 -16 -15 -62
-28 -54 -6 3 -7 1 -3 -5 10 -16 -143 -314 -157 -305 -5 3 -7 1 -4 -5 9 -14 -3
-43 -14 -36 -5 3 -6 -3 -2 -12 4 -11 3 -15 -4 -11 -7 4 -9 0 -7 -10 3 -10 -2
-27 -11 -38 -9 -11 -13 -14 -9 -6 4 9 3 12 -4 7 -6 -4 -9 -12 -7 -19 2 -7 -26
-70 -63 -142 -61 -119 -69 -130 -92 -127 -14 2 -27 5 -28 7 -2 2 25 59 61 127
35 68 142 276 237 463 95 187 178 346 183 354 9 11 14 9 29 -9 17 -21 16 -24
-25 -100z m88 -61 c-16 -33 -34 -63 -39 -66 -5 -4 -6 -1 -1 7 5 8 4 11 -3 6
-6 -4 -9 -13 -6 -21 7 -17 -56 -136 -68 -129 -4 3 -5 -3 -1 -12 4 -12 3 -15
-5 -10 -8 5 -10 1 -5 -10 5 -13 3 -15 -7 -9 -8 5 -11 4 -6 -3 9 -14 -14 -63
-27 -55 -6 3 -7 1 -3 -5 8 -13 -14 -63 -25 -56 -5 3 -6 -3 -2 -12 5 -13 3 -15
-7 -9 -8 5 -11 4 -7 -3 10 -15 -3 -43 -16 -35 -6 3 -7 1 -3 -5 6 -11 -78 -192
-90 -192 -3 0 -2 5 2 12 4 7 3 8 -5 4 -6 -4 -9 -11 -6 -16 7 -11 -16 -61 -26
-55 -4 3 -5 -3 -3 -12 3 -10 -2 -27 -11 -38 -9 -11 -13 -14 -9 -6 5 9 3 12 -5
7 -6 -4 -9 -11 -6 -16 12 -20 -14 -47 -40 -43 -14 3 -25 8 -25 10 0 3 60 123
134 267 73 143 173 339 221 434 l88 173 20 -20 21 -20 -29 -62z m80 -73 c-15
-30 -32 -53 -38 -49 -6 3 -7 1 -3 -5 6 -11 -138 -312 -150 -312 -3 0 -2 5 2
12 4 7 3 8 -4 4 -6 -4 -8 -14 -5 -23 5 -12 3 -14 -7 -8 -8 5 -11 4 -6 -3 9
-15 -34 -103 -47 -95 -5 3 -7 1 -3 -5 8 -13 -34 -103 -46 -96 -4 3 -5 -3 -1
-12 5 -13 3 -15 -7 -9 -8 5 -11 4 -7 -3 10 -15 -3 -43 -16 -35 -6 3 -7 1 -3
-5 4 -6 0 -24 -8 -40 -12 -24 -20 -28 -41 -25 -14 3 -25 9 -25 12 0 4 24 54
53 112 30 57 120 234 202 393 l147 288 21 -20 20 -21 -28 -55z m-726 -34 c-29
-58 -56 -99 -62 -95 -5 3 -7 1 -3 -5 8 -13 -24 -83 -36 -76 -4 3 -5 -3 -1 -12
5 -13 3 -15 -7 -9 -8 5 -11 4 -7 -3 10 -15 -3 -43 -16 -35 -6 3 -7 1 -3 -5 9
-15 -132 -294 -145 -287 -5 3 -6 -2 -2 -11 4 -12 3 -15 -5 -10 -8 5 -10 1 -5
-10 4 -12 3 -15 -5 -10 -8 5 -10 2 -6 -8 3 -9 -6 -35 -20 -60 -21 -37 -29 -43
-51 -39 -14 3 -25 8 -25 12 1 3 72 145 159 315 133 258 168 319 217 373 33 35
61 69 63 74 1 6 5 8 7 6 2 -2 -19 -50 -47 -105z m817 13 c5 -21 -38 -125 -52
-125 -3 0 -2 5 2 12 4 7 3 8 -5 4 -6 -4 -9 -11 -6 -16 8 -13 -6 -41 -18 -33
-6 4 -7 1 -2 -6 9 -16 -34 -103 -48 -94 -6 3 -7 1 -3 -5 9 -15 -142 -314 -155
-307 -5 3 -6 -2 -2 -11 4 -11 3 -15 -4 -11 -7 4 -9 0 -7 -11 5 -18 -36 -89
-49 -84 -4 1 -16 2 -27 2 -18 0 -7 27 84 203 57 111 138 270 179 353 76 150
100 178 113 129z m-14 -290 c-64 -127 -108 -203 -114 -199 -6 4 -8 2 -4 -4 8
-13 -14 -63 -25 -56 -5 3 -6 -3 -2 -12 5 -13 3 -15 -7 -9 -8 5 -11 4 -6 -3 9
-14 -14 -63 -27 -55 -6 3 -7 1 -3 -5 4 -6 1 -22 -6 -35 -10 -18 -19 -22 -41
-17 l-27 5 18 35 c11 19 81 157 157 305 75 149 142 273 149 277 6 4 18 1 26
-8 13 -13 3 -38 -88 -219z m162 140 c16 -25 16 -28 -15 -85 -18 -32 -37 -56
-43 -53 -5 3 -6 1 -3 -5 9 -14 -3 -43 -14 -36 -5 3 -6 -3 -2 -12 5 -13 3 -15
-7 -9 -9 6 -11 4 -5 -4 9 -16 -15 -62 -28 -54 -6 3 -7 1 -3 -5 8 -13 -24 -83
-36 -76 -4 3 -5 -3 -1 -12 5 -13 3 -15 -7 -9 -8 5 -11 4 -7 -3 10 -15 -3 -43
-16 -35 -6 3 -7 1 -3 -5 4 -6 -8 -40 -26 -75 -31 -59 -35 -63 -61 -57 l-29 5
57 110 c32 61 95 185 141 278 46 92 86 167 88 167 2 0 11 -11 20 -25z m82
-120 c-4 -16 -11 -23 -18 -19 -6 4 -8 3 -5 -4 10 -15 -3 -43 -16 -35 -6 3 -7
1 -3 -5 10 -16 -83 -194 -97 -185 -6 3 -7 1 -3 -6 10 -16 -42 -123 -56 -115
-7 4 -8 2 -4 -4 13 -22 -11 -50 -39 -45 -14 3 -25 8 -25 10 0 9 220 436 232
450 18 22 42 -8 34 -42z m-1319 -44 c-18 -33 -37 -58 -42 -53 -4 4 -5 2 -1 -5
9 -16 -14 -64 -27 -56 -6 3 -7 1 -3 -5 4 -6 -22 -67 -56 -134 -59 -116 -65
-123 -90 -120 -16 2 -28 5 -28 7 0 6 141 278 154 296 18 27 121 137 124 134 2
-1 -12 -30 -31 -64z m1385 -65 c-12 -25 -24 -46 -27 -46 -3 0 -3 5 1 12 4 7 3
8 -5 4 -6 -4 -9 -11 -6 -16 7 -12 -26 -80 -37 -74 -4 3 -5 -3 -1 -12 5 -13 3
-15 -7 -9 -8 5 -11 4 -6 -3 9 -14 -14 -63 -27 -55 -6 3 -7 1 -3 -5 4 -6 -4
-33 -18 -59 -14 -26 -25 -44 -26 -39 0 5 -6 4 -13 -2 -8 -7 -18 -7 -27 -2 -12
8 -12 13 0 37 8 16 53 102 99 192 83 163 83 163 103 143 20 -20 20 -20 0 -66z
m26 -176 c-68 -132 -70 -136 -99 -132 l-29 4 62 122 c34 66 70 136 81 155 l20
33 18 -23 c17 -23 16 -26 -53 -159z m137 41 c-3 -12 -11 -19 -16 -16 -5 3 -6
-2 -2 -11 5 -13 3 -15 -7 -9 -8 5 -11 4 -6 -3 8 -13 -14 -63 -25 -56 -5 3 -7
-1 -4 -8 3 -7 -4 -27 -14 -44 -15 -25 -24 -31 -45 -27 l-25 5 51 102 c28 55
56 104 62 108 17 11 39 -17 31 -41z m64 -110 c-23 -55 -43 -72 -72 -62 -16 6
-15 12 13 69 18 34 36 62 41 62 6 0 7 6 3 13 -4 6 3 2 15 -9 l23 -21 -23 -52z
m-1894 -11 c-14 -27 -28 -50 -31 -50 -3 0 -2 6 2 13 5 8 2 8 -9 -2 -14 -11
-17 -11 -17 0 0 11 68 89 77 89 2 0 -8 -22 -22 -50z m1984 -41 c-5 -11 -12
-19 -15 -19 -3 0 -2 6 2 13 6 8 3 8 -9 -1 -9 -8 -23 -12 -32 -10 -13 3 -12 8
6 37 19 32 21 32 39 16 15 -13 17 -22 9 -36z"/>
<path d="M1575 3729 c-4 -6 -5 -12 -2 -15 2 -3 7 2 10 11 7 17 1 20 -8 4z"/>
<path d="M1645 4099 c-4 -6 -5 -12 -2 -15 2 -3 7 2 10 11 7 17 1 20 -8 4z"/>
<path d="M1360 3539 c-7 -11 -10 -23 -7 -25 2 -2 9 7 15 21 14 30 7 33 -8 4z"/>
<path d="M1935 3969 c-4 -6 -5 -12 -2 -15 2 -3 7 2 10 11 7 17 1 20 -8 4z"/>
<path d="M1875 3859 c-4 -6 -5 -12 -2 -15 2 -3 7 2 10 11 7 17 1 20 -8 4z"/>
<path d="M1495 3109 c-4 -6 -5 -12 -2 -15 2 -3 7 2 10 11 7 17 1 20 -8 4z"/>
<path d="M1730 3339 c-7 -11 -10 -23 -7 -25 2 -2 9 7 15 21 14 30 7 33 -8 4z"/>
<path d="M2081 3833 c7 -12 15 -20 18 -17 3 2 -3 12 -13 22 -17 16 -18 16 -5
-5z"/>
<path d="M1950 3539 c-7 -11 -10 -23 -7 -25 2 -2 9 7 15 21 14 30 7 33 -8 4z"/>
<path d="M1135 3329 c-4 -6 -5 -12 -2 -15 2 -3 7 2 10 11 7 17 1 20 -8 4z"/>
<path d="M1095 3249 c-4 -6 -5 -12 -2 -15 2 -3 7 2 10 11 7 17 1 20 -8 4z"/>
<path d="M2155 3479 c-4 -6 -5 -12 -2 -15 2 -3 7 2 10 11 7 17 1 20 -8 4z"/>
<path d="M2313 3562 c-1 -22 0 -24 9 -8 6 10 6 22 2 26 -5 5 -10 -3 -11 -18z"/>
<path d="M2315 3329 c-4 -6 -5 -12 -2 -15 2 -3 7 2 10 11 7 17 1 20 -8 4z"/>
<path d="M2236 3175 c-9 -26 -7 -32 5 -12 6 10 9 21 6 23 -2 3 -7 -2 -11 -11z"/>
<path d="M980 3259 c-7 -11 -10 -23 -7 -25 2 -2 9 7 15 21 14 30 7 33 -8 4z"/>
<path d="M896 3095 c-9 -26 -7 -32 5 -12 6 10 9 21 6 23 -2 3 -7 -2 -11 -11z"/>
<path d="M2466 3417 c3 -10 9 -15 12 -12 3 3 0 11 -7 18 -10 9 -11 8 -5 -6z"/>
<path d="M2545 3319 c-4 -6 -5 -12 -2 -15 2 -3 7 2 10 11 7 17 1 20 -8 4z"/>
<path d="M2766 3095 c4 -8 11 -15 16 -15 6 0 5 6 -2 15 -7 8 -14 15 -16 15 -2
0 -1 -7 2 -15z"/>
<path d="M939 4193 c-13 -16 -12 -17 4 -4 9 7 17 15 17 17 0 8 -8 3 -21 -13z"/>
<path d="M489 3653 c-32 -36 -53 -63 -47 -63 2 0 21 20 41 45 42 49 45 61 6
18z"/>
<path d="M4815 2701 c-49 -31 -157 -99 -364 -228 -31 -20 -17 -28 64 -37 33
-4 142 -21 242 -37 l183 -31 77 25 c130 42 234 74 328 102 50 15 97 29 105 32
19 7 -41 36 -135 64 -38 12 -74 25 -80 29 -5 4 -50 21 -100 38 -49 16 -121 42
-159 56 -37 14 -76 26 -85 26 -9 0 -43 -18 -76 -39z"/>
<path d="M5700 2479 c-113 -50 -220 -95 -237 -101 -18 -6 -33 -15 -33 -19 0
-12 89 -42 250 -83 52 -14 121 -32 153 -41 55 -15 61 -15 115 4 64 22 317 100
406 126 32 9 56 18 54 21 -3 2 -65 27 -139 55 -74 29 -174 67 -224 86 -49 19
-101 37 -115 39 -16 2 -100 -30 -230 -87z"/>
<path d="M4913 2233 c-123 -2 -223 -7 -223 -11 0 -10 5 -14 208 -180 l162
-134 73 6 c281 23 438 37 475 42 l43 5 -83 66 c-46 35 -92 72 -103 81 -11 10
-54 43 -96 75 l-75 57 -80 -2 c-43 -2 -179 -4 -301 -5z"/>
<path d="M2080 1758 c-14 -6 -35 -14 -47 -19 l-22 -8 39 -118 c22 -65 60 -185
85 -268 26 -82 57 -181 70 -220 13 -38 60 -185 106 -325 107 -334 156 -480
162 -486 5 -6 196 32 205 40 5 6 -7 37 -126 321 -242 579 -422 1031 -422 1061
0 22 -24 32 -50 22z"/>
<path d="M1577 1743 c-2 -4 -23 -71 -47 -148 -23 -77 -55 -180 -70 -230 -15
-49 -49 -160 -75 -245 -84 -282 -106 -354 -150 -495 -24 -77 -50 -162 -56
-189 -13 -53 -9 -60 41 -72 14 -4 54 -20 88 -37 47 -22 66 -27 71 -18 5 7 20
76 35 154 15 78 43 216 61 307 58 285 86 422 105 525 11 55 35 174 54 265 24
119 31 167 22 171 -21 12 -74 20 -79 12z"/>
<path d="M1828 1733 l-28 -4 0 -132 c0 -73 7 -381 15 -686 8 -304 13 -556 11
-560 -4 -6 201 -3 221 4 7 2 11 10 8 17 -2 7 -11 87 -20 178 -9 91 -25 235
-35 320 -11 85 -27 223 -35 305 -18 175 -53 486 -61 533 -5 34 -9 35 -76 25z"/>
</g>
</svg>
